<svg width="562" height="117" viewBox="0 0 562 117" fill="none" xmlns="http://www.w3.org/2000/svg">
<mask id="path-1-inside-1_306_1788" fill="white">
<path fill-rule="evenodd" clip-rule="evenodd" d="M24.517 0.489871C10.067 3.32787 0 15.7089 0 30.6389C0 36.5009 0.509 38.5319 3.405 44.2279C5.881 49.0969 7.422 51.0119 9.052 51.2449C10.285 51.4199 11.294 51.3619 11.294 51.1159C11.294 50.8689 9.739 48.0839 7.837 44.9269C3.746 38.1319 2.688 32.4789 4.193 25.4589C5.693 18.4669 7.366 15.5349 12.622 10.6899C17.104 6.55887 24.727 3.42487 30.294 3.42487C35.579 3.42487 43.04 6.44887 47.551 10.4199C50.054 12.6229 52.51 14.4249 53.01 14.4249C53.511 14.4249 55.242 13.0339 56.857 11.3329C72.738 -5.38313 101.494 6.94687 101.494 30.4729C101.494 40.4699 99.532 43.2899 75.079 68.4419L52.794 91.3649L37.05 75.6629C25.861 64.5029 21.461 59.4739 21.841 58.2769C22.826 55.1729 20.131 55.1259 17.063 58.1939C13.969 61.2879 14.049 63.9549 17.206 62.9529C18.492 62.5449 23.651 67.2189 36.872 80.7689C56.065 100.44 63.724 106.758 74.794 112.049C83.916 116.409 90.859 117.7 98.534 116.464C117.276 113.445 127.243 100.711 130.739 75.3169C131.23 71.7549 131.921 70.4599 133.786 69.6109C139.659 66.9349 140.649 58.0529 135.633 53.0369C132.61 50.0139 126.145 49.4399 122.654 51.8849C116.053 56.5089 117.816 68.0169 125.544 70.7449C127.793 71.5379 127.747 73.7469 125.26 84.3419C122.628 95.5539 118.421 102.553 111.294 107.581C97.667 117.194 80.763 114.64 62.624 100.226L55.083 94.2329L77.148 72.0269C96.427 52.6259 99.611 48.9719 102.362 43.0939C105.174 37.0829 105.469 35.5979 105.124 29.1459C104.217 12.1819 91.692 0.25587 74.721 0.19587C68.099 0.17287 61.776 2.42987 55.893 6.91687L52.458 9.53687L47.836 6.00887C41.402 1.09787 32.34 -1.04713 24.517 0.489871ZM73.725 11.5369C73.024 12.6719 74.91 14.3819 76.894 14.4099C79.92 14.4519 86.613 20.8809 88.954 25.9939C91.337 31.1989 92.574 32.3989 93.692 30.5899C94.713 28.9379 91.874 22.2939 88.424 18.2639C85.232 14.5349 78.619 10.5029 75.603 10.4469C74.948 10.4349 74.103 10.9249 73.725 11.5369ZM183.086 18.1749L182.794 25.9249L179.544 26.2379L176.294 26.5519V32.9879V39.4249H179.704H183.115L183.454 54.6749C183.826 71.3499 184.735 74.4359 190.555 78.7739C193.964 81.3149 204.84 82.2699 209.304 80.4209C212.184 79.2279 212.294 78.9469 212.294 72.7679C212.294 66.7369 212.179 66.4159 210.36 67.3899C207.354 68.9989 202.774 68.6119 200.949 66.5959C199.592 65.0969 199.294 62.4839 199.294 52.0959V39.4249H205.794H212.294V32.9249V26.4249H205.794H199.294V18.4249V10.4249H191.336H183.378L183.086 18.1749ZM239.294 27.0919C236.819 27.9559 233.13 29.9779 231.097 31.5859C221.9 38.8579 218.919 55.0059 224.621 66.6599C229.965 77.5829 238.545 81.9619 253.154 81.2209C262.433 80.7509 267.807 78.7489 272.077 74.1719L274.361 71.7249L268.937 67.0909C264.169 63.0179 263.357 62.6449 262.226 64.0069C258.63 68.3399 249.791 69.7679 244.261 66.9079C241.54 65.5009 238.294 60.9129 238.294 58.4749C238.294 57.7769 244.886 57.4249 257.928 57.4249H277.563L277.078 50.6749C276.498 42.5909 273.961 37.1639 268.426 32.1629C261.483 25.8909 248.972 23.7129 239.294 27.0919ZM307.315 26.5409C305.951 27.0849 304.038 28.2509 303.065 29.1329C301.423 30.6189 301.294 30.5789 301.294 28.5799C301.294 26.5529 300.819 26.4249 293.294 26.4249H285.294V53.4249V80.4249H293.294H301.294V62.8749C301.294 39.7029 302.623 36.9709 313.61 37.5629L318.794 37.8419L319.7 32.5389C320.419 28.3319 320.316 27.0519 319.2 26.3459C317.353 25.1769 310.45 25.2899 307.315 26.5409ZM337.176 26.8059C332.964 28.3109 327.017 31.8479 325.377 33.8249C324.459 34.9309 325.356 35.8339 329.944 38.4229C335.428 41.5179 335.76 41.5809 338.378 40.0349C342.597 37.5419 348.897 37.9369 351.839 40.8799C353.189 42.2299 354.294 43.7379 354.294 44.2309C354.294 44.7239 350.582 45.4069 346.044 45.7479C334.759 46.5959 330.47 48.0139 326.163 52.3209C320.02 58.4639 318.831 69.0229 323.599 75.0849C328.432 81.2289 341.884 83.4579 349.794 79.4249C354.486 77.0329 354.294 77.0539 354.294 78.9249C354.294 80.1329 355.85 80.4249 362.294 80.4249H370.294L370.288 61.1749C370.285 50.5869 369.827 40.2819 369.269 38.2749C367.103 30.4749 357.984 25.3769 346.362 25.4689C343.3 25.4929 339.166 26.0949 337.176 26.8059ZM401.029 27.4269C397.929 29.0889 397.294 29.1739 397.294 27.9269C397.294 26.7159 395.743 26.4249 389.294 26.4249H381.294V66.4249V106.425H389.294H397.294V91.9739V77.5229L401.544 79.4519C413.914 85.0669 428.616 78.9129 434.508 65.6549C437.464 59.0029 437.135 47.6649 433.789 40.8239C427.691 28.3609 411.579 21.7719 401.029 27.4269ZM460.477 27.2609C449.959 31.0239 444.242 39.2499 443.499 51.6919C442.944 60.9859 444.752 66.7129 450.117 72.6509C455.562 78.6779 460.384 80.7119 470.434 81.2209C480.909 81.7519 487.469 79.9029 492.115 75.1099L495.284 71.8399L490.302 66.9329L485.32 62.0259L482.308 64.9119C479.852 67.2639 478.207 67.8759 473.403 68.2229C467.823 68.6269 467.322 68.4709 463.979 65.2869C462.037 63.4379 460.158 60.9119 459.804 59.6749L459.159 57.4249H479.369H499.579L498.952 51.4309C497.805 40.4529 493.617 33.5509 485.383 29.0699C478.423 25.2819 468.104 24.5319 460.477 27.2609ZM522.294 27.3139C518.37 28.7089 515.492 30.6799 512.248 34.1949C506.978 39.9049 505.294 44.6089 505.294 53.6129C505.294 70.0839 514.904 80.2249 531.447 81.2139C541.726 81.8279 548.209 80.1589 553.381 75.5699L557.513 71.9029L552.332 67.0569L547.151 62.2109L544.972 64.1929C541.453 67.3949 538.72 68.4249 533.742 68.4249C529.635 68.4249 528.581 67.9469 525.176 64.5429C518.207 57.5739 518.547 57.4249 541.423 57.4249H561.552L560.85 51.2179C559.606 40.2249 555.479 33.4769 547.267 29.0069C540.367 25.2509 530.061 24.5529 522.294 27.3139ZM91.368 36.3789C89.79 37.3549 90.799 39.4249 92.853 39.4249C94.373 39.4249 94.856 36.8899 93.496 36.0499C93.057 35.7789 92.1 35.9269 91.368 36.3789ZM413.485 39.1749C417.612 41.5829 420.294 47.2189 420.294 53.4839C420.294 63.0129 415.158 69.4249 407.524 69.4249C400.238 69.4249 395.294 62.9509 395.294 53.4099C395.294 41.4699 404.744 34.0749 413.485 39.1749ZM257.827 41.4559C259.184 42.7309 260.294 44.5949 260.294 45.5989C260.294 47.2559 259.277 47.4249 249.294 47.4249C243.244 47.4249 238.31 47.0879 238.329 46.6749C238.416 44.8449 241.219 41.0259 243.404 39.7629C246.982 37.6939 254.799 38.6109 257.827 41.4559ZM477.314 39.9349C480.144 41.3989 482.294 44.1719 482.294 46.3589C482.294 47.0489 478.413 47.4249 471.294 47.4249C459.504 47.4249 458.77 47.0459 461.901 42.5759C464.83 38.3929 471.968 37.1709 477.314 39.9349ZM539.149 39.8499C541.407 41.0179 544.294 45.0139 544.294 46.9719C544.294 47.2209 539.344 47.4249 533.294 47.4249C523.311 47.4249 522.294 47.2559 522.294 45.5989C522.294 43.7159 525.65 40.0979 528.294 39.1309C531.157 38.0849 536.408 38.4329 539.149 39.8499ZM133.544 56.1979C137.457 59.6349 133.801 67.4249 128.275 67.4249C123.797 67.4249 121.237 63.3499 122.565 58.3379C123.796 53.6929 129.439 52.5939 133.544 56.1979ZM354.294 60.9699C354.294 66.3379 350.716 69.4249 344.494 69.4249C338.297 69.4249 335.404 66.8569 336.878 62.6659C338.159 59.0249 341.657 57.4569 348.544 57.4399L354.294 57.4249V60.9699ZM126.544 60.6749C127.174 62.5669 130.294 62.8359 130.294 60.9979C130.294 60.0709 129.439 59.4249 128.211 59.4249C126.989 59.4249 126.299 59.9419 126.544 60.6749Z"/>
</mask>
<path fill-rule="evenodd" clip-rule="evenodd" d="M24.517 0.489871C10.067 3.32787 0 15.7089 0 30.6389C0 36.5009 0.509 38.5319 3.405 44.2279C5.881 49.0969 7.422 51.0119 9.052 51.2449C10.285 51.4199 11.294 51.3619 11.294 51.1159C11.294 50.8689 9.739 48.0839 7.837 44.9269C3.746 38.1319 2.688 32.4789 4.193 25.4589C5.693 18.4669 7.366 15.5349 12.622 10.6899C17.104 6.55887 24.727 3.42487 30.294 3.42487C35.579 3.42487 43.04 6.44887 47.551 10.4199C50.054 12.6229 52.51 14.4249 53.01 14.4249C53.511 14.4249 55.242 13.0339 56.857 11.3329C72.738 -5.38313 101.494 6.94687 101.494 30.4729C101.494 40.4699 99.532 43.2899 75.079 68.4419L52.794 91.3649L37.05 75.6629C25.861 64.5029 21.461 59.4739 21.841 58.2769C22.826 55.1729 20.131 55.1259 17.063 58.1939C13.969 61.2879 14.049 63.9549 17.206 62.9529C18.492 62.5449 23.651 67.2189 36.872 80.7689C56.065 100.44 63.724 106.758 74.794 112.049C83.916 116.409 90.859 117.7 98.534 116.464C117.276 113.445 127.243 100.711 130.739 75.3169C131.23 71.7549 131.921 70.4599 133.786 69.6109C139.659 66.9349 140.649 58.0529 135.633 53.0369C132.61 50.0139 126.145 49.4399 122.654 51.8849C116.053 56.5089 117.816 68.0169 125.544 70.7449C127.793 71.5379 127.747 73.7469 125.26 84.3419C122.628 95.5539 118.421 102.553 111.294 107.581C97.667 117.194 80.763 114.64 62.624 100.226L55.083 94.2329L77.148 72.0269C96.427 52.6259 99.611 48.9719 102.362 43.0939C105.174 37.0829 105.469 35.5979 105.124 29.1459C104.217 12.1819 91.692 0.25587 74.721 0.19587C68.099 0.17287 61.776 2.42987 55.893 6.91687L52.458 9.53687L47.836 6.00887C41.402 1.09787 32.34 -1.04713 24.517 0.489871ZM73.725 11.5369C73.024 12.6719 74.91 14.3819 76.894 14.4099C79.92 14.4519 86.613 20.8809 88.954 25.9939C91.337 31.1989 92.574 32.3989 93.692 30.5899C94.713 28.9379 91.874 22.2939 88.424 18.2639C85.232 14.5349 78.619 10.5029 75.603 10.4469C74.948 10.4349 74.103 10.9249 73.725 11.5369ZM183.086 18.1749L182.794 25.9249L179.544 26.2379L176.294 26.5519V32.9879V39.4249H179.704H183.115L183.454 54.6749C183.826 71.3499 184.735 74.4359 190.555 78.7739C193.964 81.3149 204.84 82.2699 209.304 80.4209C212.184 79.2279 212.294 78.9469 212.294 72.7679C212.294 66.7369 212.179 66.4159 210.36 67.3899C207.354 68.9989 202.774 68.6119 200.949 66.5959C199.592 65.0969 199.294 62.4839 199.294 52.0959V39.4249H205.794H212.294V32.9249V26.4249H205.794H199.294V18.4249V10.4249H191.336H183.378L183.086 18.1749ZM239.294 27.0919C236.819 27.9559 233.13 29.9779 231.097 31.5859C221.9 38.8579 218.919 55.0059 224.621 66.6599C229.965 77.5829 238.545 81.9619 253.154 81.2209C262.433 80.7509 267.807 78.7489 272.077 74.1719L274.361 71.7249L268.937 67.0909C264.169 63.0179 263.357 62.6449 262.226 64.0069C258.63 68.3399 249.791 69.7679 244.261 66.9079C241.54 65.5009 238.294 60.9129 238.294 58.4749C238.294 57.7769 244.886 57.4249 257.928 57.4249H277.563L277.078 50.6749C276.498 42.5909 273.961 37.1639 268.426 32.1629C261.483 25.8909 248.972 23.7129 239.294 27.0919ZM307.315 26.5409C305.951 27.0849 304.038 28.2509 303.065 29.1329C301.423 30.6189 301.294 30.5789 301.294 28.5799C301.294 26.5529 300.819 26.4249 293.294 26.4249H285.294V53.4249V80.4249H293.294H301.294V62.8749C301.294 39.7029 302.623 36.9709 313.61 37.5629L318.794 37.8419L319.7 32.5389C320.419 28.3319 320.316 27.0519 319.2 26.3459C317.353 25.1769 310.45 25.2899 307.315 26.5409ZM337.176 26.8059C332.964 28.3109 327.017 31.8479 325.377 33.8249C324.459 34.9309 325.356 35.8339 329.944 38.4229C335.428 41.5179 335.76 41.5809 338.378 40.0349C342.597 37.5419 348.897 37.9369 351.839 40.8799C353.189 42.2299 354.294 43.7379 354.294 44.2309C354.294 44.7239 350.582 45.4069 346.044 45.7479C334.759 46.5959 330.47 48.0139 326.163 52.3209C320.02 58.4639 318.831 69.0229 323.599 75.0849C328.432 81.2289 341.884 83.4579 349.794 79.4249C354.486 77.0329 354.294 77.0539 354.294 78.9249C354.294 80.1329 355.85 80.4249 362.294 80.4249H370.294L370.288 61.1749C370.285 50.5869 369.827 40.2819 369.269 38.2749C367.103 30.4749 357.984 25.3769 346.362 25.4689C343.3 25.4929 339.166 26.0949 337.176 26.8059ZM401.029 27.4269C397.929 29.0889 397.294 29.1739 397.294 27.9269C397.294 26.7159 395.743 26.4249 389.294 26.4249H381.294V66.4249V106.425H389.294H397.294V91.9739V77.5229L401.544 79.4519C413.914 85.0669 428.616 78.9129 434.508 65.6549C437.464 59.0029 437.135 47.6649 433.789 40.8239C427.691 28.3609 411.579 21.7719 401.029 27.4269ZM460.477 27.2609C449.959 31.0239 444.242 39.2499 443.499 51.6919C442.944 60.9859 444.752 66.7129 450.117 72.6509C455.562 78.6779 460.384 80.7119 470.434 81.2209C480.909 81.7519 487.469 79.9029 492.115 75.1099L495.284 71.8399L490.302 66.9329L485.32 62.0259L482.308 64.9119C479.852 67.2639 478.207 67.8759 473.403 68.2229C467.823 68.6269 467.322 68.4709 463.979 65.2869C462.037 63.4379 460.158 60.9119 459.804 59.6749L459.159 57.4249H479.369H499.579L498.952 51.4309C497.805 40.4529 493.617 33.5509 485.383 29.0699C478.423 25.2819 468.104 24.5319 460.477 27.2609ZM522.294 27.3139C518.37 28.7089 515.492 30.6799 512.248 34.1949C506.978 39.9049 505.294 44.6089 505.294 53.6129C505.294 70.0839 514.904 80.2249 531.447 81.2139C541.726 81.8279 548.209 80.1589 553.381 75.5699L557.513 71.9029L552.332 67.0569L547.151 62.2109L544.972 64.1929C541.453 67.3949 538.72 68.4249 533.742 68.4249C529.635 68.4249 528.581 67.9469 525.176 64.5429C518.207 57.5739 518.547 57.4249 541.423 57.4249H561.552L560.85 51.2179C559.606 40.2249 555.479 33.4769 547.267 29.0069C540.367 25.2509 530.061 24.5529 522.294 27.3139ZM91.368 36.3789C89.79 37.3549 90.799 39.4249 92.853 39.4249C94.373 39.4249 94.856 36.8899 93.496 36.0499C93.057 35.7789 92.1 35.9269 91.368 36.3789ZM413.485 39.1749C417.612 41.5829 420.294 47.2189 420.294 53.4839C420.294 63.0129 415.158 69.4249 407.524 69.4249C400.238 69.4249 395.294 62.9509 395.294 53.4099C395.294 41.4699 404.744 34.0749 413.485 39.1749ZM257.827 41.4559C259.184 42.7309 260.294 44.5949 260.294 45.5989C260.294 47.2559 259.277 47.4249 249.294 47.4249C243.244 47.4249 238.31 47.0879 238.329 46.6749C238.416 44.8449 241.219 41.0259 243.404 39.7629C246.982 37.6939 254.799 38.6109 257.827 41.4559ZM477.314 39.9349C480.144 41.3989 482.294 44.1719 482.294 46.3589C482.294 47.0489 478.413 47.4249 471.294 47.4249C459.504 47.4249 458.77 47.0459 461.901 42.5759C464.83 38.3929 471.968 37.1709 477.314 39.9349ZM539.149 39.8499C541.407 41.0179 544.294 45.0139 544.294 46.9719C544.294 47.2209 539.344 47.4249 533.294 47.4249C523.311 47.4249 522.294 47.2559 522.294 45.5989C522.294 43.7159 525.65 40.0979 528.294 39.1309C531.157 38.0849 536.408 38.4329 539.149 39.8499ZM133.544 56.1979C137.457 59.6349 133.801 67.4249 128.275 67.4249C123.797 67.4249 121.237 63.3499 122.565 58.3379C123.796 53.6929 129.439 52.5939 133.544 56.1979ZM354.294 60.9699C354.294 66.3379 350.716 69.4249 344.494 69.4249C338.297 69.4249 335.404 66.8569 336.878 62.6659C338.159 59.0249 341.657 57.4569 348.544 57.4399L354.294 57.4249V60.9699ZM126.544 60.6749C127.174 62.5669 130.294 62.8359 130.294 60.9979C130.294 60.0709 129.439 59.4249 128.211 59.4249C126.989 59.4249 126.299 59.9419 126.544 60.6749Z" fill="#444CE7" stroke="#444CE7" stroke-width="2" mask="url(#path-1-inside-1_306_1788)"/>
</svg>
